<mxfile host="app.diagrams.net" modified="2023-11-15T01:03:06.210Z" agent="Mozilla/5.0 (Windows NT 10.0; Win64; x64) AppleWebKit/537.36 (KHTML, like Gecko) Chrome/119.0.0.0 Safari/537.36" etag="UXSeA_JWv2SHDwy92Ys5" version="22.1.1" type="device">
  <diagram name="Page-1" id="t4Thi-5eS-Nz-MyH23UC">
    <mxGraphModel dx="884" dy="850" grid="1" gridSize="10" guides="1" tooltips="1" connect="1" arrows="1" fold="1" page="1" pageScale="1" pageWidth="827" pageHeight="1169" math="0" shadow="0">
      <root>
        <mxCell id="0" />
        <mxCell id="1" parent="0" />
        <mxCell id="PZtrhCCW3-IAaMeAY0HN-11" value="Клиент&lt;span style=&quot;font-family: -webkit-standard; font-size: medium; font-weight: 400; text-align: start;&quot;&gt;&lt;/span&gt;" style="swimlane;whiteSpace=wrap;html=1;" parent="1" vertex="1">
          <mxGeometry x="414" y="330" width="316" height="300" as="geometry" />
        </mxCell>
        <mxCell id="PZtrhCCW3-IAaMeAY0HN-16" value="Номер клиента (PK, int, NOT NULL)&lt;span style=&quot;font-family: -webkit-standard; font-size: medium;&quot;&gt;&lt;/span&gt;" style="text;strokeColor=none;fillColor=none;align=left;verticalAlign=middle;spacingLeft=4;spacingRight=4;overflow=hidden;points=[[0,0.5],[1,0.5]];portConstraint=eastwest;rotatable=0;whiteSpace=wrap;html=1;" parent="PZtrhCCW3-IAaMeAY0HN-11" vertex="1">
          <mxGeometry y="20" width="315" height="30" as="geometry" />
        </mxCell>
        <mxCell id="PZtrhCCW3-IAaMeAY0HN-18" value="Должностное лицо&amp;nbsp;&lt;span style=&quot;font-family: -webkit-standard; font-size: medium;&quot;&gt;&lt;/span&gt;(varcher(100), NOT NULL)" style="text;strokeColor=none;fillColor=none;align=left;verticalAlign=middle;spacingLeft=4;spacingRight=4;overflow=hidden;points=[[0,0.5],[1,0.5]];portConstraint=eastwest;rotatable=0;whiteSpace=wrap;html=1;" parent="PZtrhCCW3-IAaMeAY0HN-11" vertex="1">
          <mxGeometry y="110" width="310" height="30" as="geometry" />
        </mxCell>
        <mxCell id="PZtrhCCW3-IAaMeAY0HN-20" value="Адрес доставки&amp;nbsp;&lt;span style=&quot;font-family: -webkit-standard; font-size: medium;&quot;&gt;&lt;/span&gt;(varcher(200), NOT NULL)" style="text;strokeColor=none;fillColor=none;align=left;verticalAlign=middle;spacingLeft=4;spacingRight=4;overflow=hidden;points=[[0,0.5],[1,0.5]];portConstraint=eastwest;rotatable=0;whiteSpace=wrap;html=1;" parent="PZtrhCCW3-IAaMeAY0HN-11" vertex="1">
          <mxGeometry y="170" width="310" height="30" as="geometry" />
        </mxCell>
        <mxCell id="PZtrhCCW3-IAaMeAY0HN-21" value="Контактная информация&amp;nbsp;&lt;span style=&quot;font-family: -webkit-standard; font-size: medium;&quot;&gt;&lt;/span&gt;(varcher(20), NOT NULL)" style="text;strokeColor=none;fillColor=none;align=left;verticalAlign=middle;spacingLeft=4;spacingRight=4;overflow=hidden;points=[[0,0.5],[1,0.5]];portConstraint=eastwest;rotatable=0;whiteSpace=wrap;html=1;" parent="PZtrhCCW3-IAaMeAY0HN-11" vertex="1">
          <mxGeometry y="140" width="310" height="30" as="geometry" />
        </mxCell>
        <mxCell id="PZtrhCCW3-IAaMeAY0HN-22" value="Расчетный счет&amp;nbsp;&lt;span style=&quot;font-family: -webkit-standard; font-size: medium;&quot;&gt;&lt;/span&gt;(varcher(24), NOT NULL)" style="text;strokeColor=none;fillColor=none;align=left;verticalAlign=middle;spacingLeft=4;spacingRight=4;overflow=hidden;points=[[0,0.5],[1,0.5]];portConstraint=eastwest;rotatable=0;whiteSpace=wrap;html=1;" parent="PZtrhCCW3-IAaMeAY0HN-11" vertex="1">
          <mxGeometry y="200" width="310" height="30" as="geometry" />
        </mxCell>
        <mxCell id="PZtrhCCW3-IAaMeAY0HN-24" value="Наименование банка (varcher(100), NOT NULL)" style="text;strokeColor=none;fillColor=none;align=left;verticalAlign=middle;spacingLeft=4;spacingRight=4;overflow=hidden;points=[[0,0.5],[1,0.5]];portConstraint=eastwest;rotatable=0;whiteSpace=wrap;html=1;" parent="PZtrhCCW3-IAaMeAY0HN-11" vertex="1">
          <mxGeometry y="260" width="310" height="30" as="geometry" />
        </mxCell>
        <mxCell id="PZtrhCCW3-IAaMeAY0HN-23" value="БИК (varcher(9), NOT NULL)" style="text;strokeColor=none;fillColor=none;align=left;verticalAlign=middle;spacingLeft=4;spacingRight=4;overflow=hidden;points=[[0,0.5],[1,0.5]];portConstraint=eastwest;rotatable=0;whiteSpace=wrap;html=1;" parent="PZtrhCCW3-IAaMeAY0HN-11" vertex="1">
          <mxGeometry y="230" width="310" height="30" as="geometry" />
        </mxCell>
        <mxCell id="PZtrhCCW3-IAaMeAY0HN-17" value="Реквизиты ИНН&amp;nbsp;&lt;span style=&quot;font-family: -webkit-standard; font-size: medium;&quot;&gt;&lt;/span&gt;(varcher(12), NOT NULL)" style="text;strokeColor=none;fillColor=none;align=left;verticalAlign=middle;spacingLeft=4;spacingRight=4;overflow=hidden;points=[[0,0.5],[1,0.5]];portConstraint=eastwest;rotatable=0;whiteSpace=wrap;html=1;" parent="PZtrhCCW3-IAaMeAY0HN-11" vertex="1">
          <mxGeometry y="50" width="310" height="30" as="geometry" />
        </mxCell>
        <mxCell id="PZtrhCCW3-IAaMeAY0HN-19" value="Наименование&amp;nbsp;&lt;span style=&quot;font-family: -webkit-standard; font-size: medium;&quot;&gt;&lt;/span&gt;(varcher(200), NOT NULL)" style="text;strokeColor=none;fillColor=none;align=left;verticalAlign=middle;spacingLeft=4;spacingRight=4;overflow=hidden;points=[[0,0.5],[1,0.5]];portConstraint=eastwest;rotatable=0;whiteSpace=wrap;html=1;" parent="PZtrhCCW3-IAaMeAY0HN-11" vertex="1">
          <mxGeometry y="80" width="316" height="30" as="geometry" />
        </mxCell>
        <mxCell id="PZtrhCCW3-IAaMeAY0HN-41" value="Транспортная компания&lt;span style=&quot;font-family: -webkit-standard; font-size: medium; font-weight: 400; text-align: start;&quot;&gt;&lt;/span&gt;" style="swimlane;whiteSpace=wrap;html=1;startSize=23;" parent="1" vertex="1">
          <mxGeometry x="414" y="750" width="310" height="180" as="geometry" />
        </mxCell>
        <mxCell id="PZtrhCCW3-IAaMeAY0HN-42" value="Номер транспортной компании (PK, int, NOT NULL)" style="text;strokeColor=none;fillColor=none;align=left;verticalAlign=middle;spacingLeft=4;spacingRight=4;overflow=hidden;points=[[0,0.5],[1,0.5]];portConstraint=eastwest;rotatable=0;whiteSpace=wrap;html=1;" parent="PZtrhCCW3-IAaMeAY0HN-41" vertex="1">
          <mxGeometry y="20" width="310" height="30" as="geometry" />
        </mxCell>
        <mxCell id="PZtrhCCW3-IAaMeAY0HN-43" value="Наименование&amp;nbsp;&lt;span style=&quot;font-family: -webkit-standard; font-size: medium;&quot;&gt;&lt;/span&gt;(varcher(200), NOT NULL)" style="text;strokeColor=none;fillColor=none;align=left;verticalAlign=middle;spacingLeft=4;spacingRight=4;overflow=hidden;points=[[0,0.5],[1,0.5]];portConstraint=eastwest;rotatable=0;whiteSpace=wrap;html=1;" parent="PZtrhCCW3-IAaMeAY0HN-41" vertex="1">
          <mxGeometry y="50" width="310" height="30" as="geometry" />
        </mxCell>
        <mxCell id="PZtrhCCW3-IAaMeAY0HN-44" value="Адрес&amp;nbsp;&lt;span style=&quot;font-family: -webkit-standard; font-size: medium;&quot;&gt;&lt;/span&gt;(varcher(200), NOT NULL)" style="text;strokeColor=none;fillColor=none;align=left;verticalAlign=middle;spacingLeft=4;spacingRight=4;overflow=hidden;points=[[0,0.5],[1,0.5]];portConstraint=eastwest;rotatable=0;whiteSpace=wrap;html=1;" parent="PZtrhCCW3-IAaMeAY0HN-41" vertex="1">
          <mxGeometry y="80" width="310" height="30" as="geometry" />
        </mxCell>
        <mxCell id="PZtrhCCW3-IAaMeAY0HN-45" value="Контактная информация&amp;nbsp;(varcher(20), NOT NULL)" style="text;strokeColor=none;fillColor=none;align=left;verticalAlign=middle;spacingLeft=4;spacingRight=4;overflow=hidden;points=[[0,0.5],[1,0.5]];portConstraint=eastwest;rotatable=0;whiteSpace=wrap;html=1;" parent="PZtrhCCW3-IAaMeAY0HN-41" vertex="1">
          <mxGeometry y="110" width="310" height="30" as="geometry" />
        </mxCell>
        <mxCell id="PZtrhCCW3-IAaMeAY0HN-47" value="Реквизиты ИНН&amp;nbsp;(varcher(12), NOT NULL)" style="text;strokeColor=none;fillColor=none;align=left;verticalAlign=middle;spacingLeft=4;spacingRight=4;overflow=hidden;points=[[0,0.5],[1,0.5]];portConstraint=eastwest;rotatable=0;whiteSpace=wrap;html=1;" parent="PZtrhCCW3-IAaMeAY0HN-41" vertex="1">
          <mxGeometry y="140" width="310" height="30" as="geometry" />
        </mxCell>
        <mxCell id="PZtrhCCW3-IAaMeAY0HN-54" value="Сотрудники&lt;span style=&quot;font-family: -webkit-standard; font-size: medium; font-weight: 400; text-align: start;&quot;&gt;&lt;/span&gt;" style="swimlane;whiteSpace=wrap;html=1;" parent="1" vertex="1">
          <mxGeometry x="517" y="1090" width="310" height="140" as="geometry" />
        </mxCell>
        <mxCell id="PZtrhCCW3-IAaMeAY0HN-55" value="Номер сотрудника (PK, int, NOT NULL)" style="text;strokeColor=none;fillColor=none;align=left;verticalAlign=middle;spacingLeft=4;spacingRight=4;overflow=hidden;points=[[0,0.5],[1,0.5]];portConstraint=eastwest;rotatable=0;whiteSpace=wrap;html=1;" parent="PZtrhCCW3-IAaMeAY0HN-54" vertex="1">
          <mxGeometry y="20" width="310" height="30" as="geometry" />
        </mxCell>
        <mxCell id="PZtrhCCW3-IAaMeAY0HN-56" value="ФИО&amp;nbsp;&lt;span style=&quot;font-family: -webkit-standard; font-size: medium;&quot;&gt;&lt;/span&gt;(varcher(100), NOT NULL)" style="text;strokeColor=none;fillColor=none;align=left;verticalAlign=middle;spacingLeft=4;spacingRight=4;overflow=hidden;points=[[0,0.5],[1,0.5]];portConstraint=eastwest;rotatable=0;whiteSpace=wrap;html=1;" parent="PZtrhCCW3-IAaMeAY0HN-54" vertex="1">
          <mxGeometry y="50" width="310" height="30" as="geometry" />
        </mxCell>
        <mxCell id="PZtrhCCW3-IAaMeAY0HN-60" value="Контактная информация&amp;nbsp;&lt;span style=&quot;font-family: -webkit-standard; font-size: medium;&quot;&gt;&lt;/span&gt;(varcher(20), NOT NULL)" style="text;strokeColor=none;fillColor=none;align=left;verticalAlign=middle;spacingLeft=4;spacingRight=4;overflow=hidden;points=[[0,0.5],[1,0.5]];portConstraint=eastwest;rotatable=0;whiteSpace=wrap;html=1;" parent="PZtrhCCW3-IAaMeAY0HN-54" vertex="1">
          <mxGeometry y="80" width="310" height="30" as="geometry" />
        </mxCell>
        <mxCell id="PZtrhCCW3-IAaMeAY0HN-61" value="Должность&amp;nbsp;&lt;span style=&quot;font-family: -webkit-standard; font-size: medium;&quot;&gt;&lt;/span&gt;(varcher(50), NOT NULL)" style="text;strokeColor=none;fillColor=none;align=left;verticalAlign=middle;spacingLeft=4;spacingRight=4;overflow=hidden;points=[[0,0.5],[1,0.5]];portConstraint=eastwest;rotatable=0;whiteSpace=wrap;html=1;" parent="PZtrhCCW3-IAaMeAY0HN-54" vertex="1">
          <mxGeometry y="110" width="310" height="30" as="geometry" />
        </mxCell>
        <mxCell id="PZtrhCCW3-IAaMeAY0HN-67" value="Заказ&lt;span style=&quot;font-family: -webkit-standard; font-size: medium; font-weight: 400; text-align: start;&quot;&gt;&lt;/span&gt;" style="swimlane;whiteSpace=wrap;html=1;" parent="1" vertex="1">
          <mxGeometry x="910" y="630" width="320" height="350" as="geometry" />
        </mxCell>
        <mxCell id="PZtrhCCW3-IAaMeAY0HN-68" value="Номер заказа (PK, int, NOT NULL)" style="text;strokeColor=none;fillColor=none;align=left;verticalAlign=middle;spacingLeft=4;spacingRight=4;overflow=hidden;points=[[0,0.5],[1,0.5]];portConstraint=eastwest;rotatable=0;whiteSpace=wrap;html=1;" parent="PZtrhCCW3-IAaMeAY0HN-67" vertex="1">
          <mxGeometry y="20" width="320" height="30" as="geometry" />
        </mxCell>
        <mxCell id="PZtrhCCW3-IAaMeAY0HN-69" value="Номер клиента&amp;nbsp;&lt;span style=&quot;font-family: -webkit-standard; font-size: medium;&quot;&gt;&lt;/span&gt;(FK, int, NOT NULL)" style="text;strokeColor=none;fillColor=none;align=left;verticalAlign=middle;spacingLeft=4;spacingRight=4;overflow=hidden;points=[[0,0.5],[1,0.5]];portConstraint=eastwest;rotatable=0;whiteSpace=wrap;html=1;" parent="PZtrhCCW3-IAaMeAY0HN-67" vertex="1">
          <mxGeometry y="50" width="310" height="30" as="geometry" />
        </mxCell>
        <mxCell id="PZtrhCCW3-IAaMeAY0HN-70" value="Номер сотрудника продаж&amp;nbsp;&lt;span style=&quot;font-family: -webkit-standard; font-size: medium;&quot;&gt;&lt;/span&gt;&amp;nbsp;(FK, int, NOT NULL)" style="text;strokeColor=none;fillColor=none;align=left;verticalAlign=middle;spacingLeft=4;spacingRight=4;overflow=hidden;points=[[0,0.5],[1,0.5]];portConstraint=eastwest;rotatable=0;whiteSpace=wrap;html=1;" parent="PZtrhCCW3-IAaMeAY0HN-67" vertex="1">
          <mxGeometry y="80" width="320" height="30" as="geometry" />
        </mxCell>
        <mxCell id="PZtrhCCW3-IAaMeAY0HN-71" value="Номер сотрудника склада&amp;nbsp;&lt;span style=&quot;font-family: -webkit-standard; font-size: medium;&quot;&gt;&lt;/span&gt;&amp;nbsp;(FK, int, NOT NULL)" style="text;strokeColor=none;fillColor=none;align=left;verticalAlign=middle;spacingLeft=4;spacingRight=4;overflow=hidden;points=[[0,0.5],[1,0.5]];portConstraint=eastwest;rotatable=0;whiteSpace=wrap;html=1;" parent="PZtrhCCW3-IAaMeAY0HN-67" vertex="1">
          <mxGeometry y="110" width="310" height="30" as="geometry" />
        </mxCell>
        <mxCell id="PZtrhCCW3-IAaMeAY0HN-72" value="Номер транспортной компании&amp;nbsp;&lt;span style=&quot;font-family: -webkit-standard; font-size: medium;&quot;&gt;&lt;/span&gt;&amp;nbsp;(FK, int, NOT NULL)" style="text;strokeColor=none;fillColor=none;align=left;verticalAlign=middle;spacingLeft=4;spacingRight=4;overflow=hidden;points=[[0,0.5],[1,0.5]];portConstraint=eastwest;rotatable=0;whiteSpace=wrap;html=1;" parent="PZtrhCCW3-IAaMeAY0HN-67" vertex="1">
          <mxGeometry y="140" width="310" height="30" as="geometry" />
        </mxCell>
        <mxCell id="PZtrhCCW3-IAaMeAY0HN-74" value="Дата продажи&amp;nbsp;&lt;span style=&quot;font-family: -webkit-standard; font-size: medium;&quot;&gt;&lt;/span&gt;&amp;nbsp;(date, NOT NULL)" style="text;strokeColor=none;fillColor=none;align=left;verticalAlign=middle;spacingLeft=4;spacingRight=4;overflow=hidden;points=[[0,0.5],[1,0.5]];portConstraint=eastwest;rotatable=0;whiteSpace=wrap;html=1;" parent="PZtrhCCW3-IAaMeAY0HN-67" vertex="1">
          <mxGeometry y="170" width="310" height="30" as="geometry" />
        </mxCell>
        <mxCell id="PZtrhCCW3-IAaMeAY0HN-75" value="Доп. Информация&amp;nbsp;&lt;span style=&quot;font-family: -webkit-standard; font-size: medium;&quot;&gt;&lt;/span&gt;(varcher(200))" style="text;strokeColor=none;fillColor=none;align=left;verticalAlign=middle;spacingLeft=4;spacingRight=4;overflow=hidden;points=[[0,0.5],[1,0.5]];portConstraint=eastwest;rotatable=0;whiteSpace=wrap;html=1;" parent="PZtrhCCW3-IAaMeAY0HN-67" vertex="1">
          <mxGeometry y="230" width="310" height="30" as="geometry" />
        </mxCell>
        <mxCell id="PZtrhCCW3-IAaMeAY0HN-76" value="Дата отгрузки (date, NOT NULL)" style="text;strokeColor=none;fillColor=none;align=left;verticalAlign=middle;spacingLeft=4;spacingRight=4;overflow=hidden;points=[[0,0.5],[1,0.5]];portConstraint=eastwest;rotatable=0;whiteSpace=wrap;html=1;" parent="PZtrhCCW3-IAaMeAY0HN-67" vertex="1">
          <mxGeometry y="200" width="310" height="30" as="geometry" />
        </mxCell>
        <mxCell id="PZtrhCCW3-IAaMeAY0HN-78" value="Быстрая отгрузка&amp;nbsp;&lt;span style=&quot;font-family: -webkit-standard; font-size: medium;&quot;&gt;&lt;/span&gt;(logical)" style="text;strokeColor=none;fillColor=none;align=left;verticalAlign=middle;spacingLeft=4;spacingRight=4;overflow=hidden;points=[[0,0.5],[1,0.5]];portConstraint=eastwest;rotatable=0;whiteSpace=wrap;html=1;" parent="PZtrhCCW3-IAaMeAY0HN-67" vertex="1">
          <mxGeometry y="260" width="320" height="30" as="geometry" />
        </mxCell>
        <mxCell id="PZtrhCCW3-IAaMeAY0HN-79" value="Упаковка в стрейч-пленку&amp;nbsp;&lt;span style=&quot;font-family: -webkit-standard; font-size: medium;&quot;&gt;&lt;/span&gt;(logical)" style="text;strokeColor=none;fillColor=none;align=left;verticalAlign=middle;spacingLeft=4;spacingRight=4;overflow=hidden;points=[[0,0.5],[1,0.5]];portConstraint=eastwest;rotatable=0;whiteSpace=wrap;html=1;" parent="PZtrhCCW3-IAaMeAY0HN-67" vertex="1">
          <mxGeometry y="290" width="320" height="30" as="geometry" />
        </mxCell>
        <mxCell id="xxaMytMatceJcMFOENrE-1" value="Сумма заказа (money, NOT NULL)" style="text;strokeColor=none;fillColor=none;align=left;verticalAlign=middle;spacingLeft=4;spacingRight=4;overflow=hidden;points=[[0,0.5],[1,0.5]];portConstraint=eastwest;rotatable=0;whiteSpace=wrap;html=1;" vertex="1" parent="PZtrhCCW3-IAaMeAY0HN-67">
          <mxGeometry y="320" width="320" height="30" as="geometry" />
        </mxCell>
        <mxCell id="PZtrhCCW3-IAaMeAY0HN-80" value="Содержание заказа&lt;span style=&quot;font-family: -webkit-standard; font-size: medium; font-weight: 400; text-align: start;&quot;&gt;&lt;/span&gt;" style="swimlane;whiteSpace=wrap;html=1;" parent="1" vertex="1">
          <mxGeometry x="1460" y="390" width="310" height="140" as="geometry" />
        </mxCell>
        <mxCell id="PZtrhCCW3-IAaMeAY0HN-81" value="Номер содержания заказа (PK, int, NOT NULL)" style="text;strokeColor=none;fillColor=none;align=left;verticalAlign=middle;spacingLeft=4;spacingRight=4;overflow=hidden;points=[[0,0.5],[1,0.5]];portConstraint=eastwest;rotatable=0;whiteSpace=wrap;html=1;" parent="PZtrhCCW3-IAaMeAY0HN-80" vertex="1">
          <mxGeometry y="20" width="310" height="30" as="geometry" />
        </mxCell>
        <mxCell id="PZtrhCCW3-IAaMeAY0HN-82" value="Номер заказа&amp;nbsp;&lt;span style=&quot;font-family: -webkit-standard; font-size: medium;&quot;&gt;&lt;/span&gt;(FK, int, NOT NULL)" style="text;strokeColor=none;fillColor=none;align=left;verticalAlign=middle;spacingLeft=4;spacingRight=4;overflow=hidden;points=[[0,0.5],[1,0.5]];portConstraint=eastwest;rotatable=0;whiteSpace=wrap;html=1;" parent="PZtrhCCW3-IAaMeAY0HN-80" vertex="1">
          <mxGeometry y="50" width="310" height="30" as="geometry" />
        </mxCell>
        <mxCell id="PZtrhCCW3-IAaMeAY0HN-83" value="Товар&amp;nbsp;&lt;span style=&quot;font-family: -webkit-standard; font-size: medium;&quot;&gt;&lt;/span&gt;(FK, int, NOT NULL)" style="text;strokeColor=none;fillColor=none;align=left;verticalAlign=middle;spacingLeft=4;spacingRight=4;overflow=hidden;points=[[0,0.5],[1,0.5]];portConstraint=eastwest;rotatable=0;whiteSpace=wrap;html=1;" parent="PZtrhCCW3-IAaMeAY0HN-80" vertex="1">
          <mxGeometry y="80" width="310" height="30" as="geometry" />
        </mxCell>
        <mxCell id="PZtrhCCW3-IAaMeAY0HN-84" value="Кол-во (int, NOT NULL)&amp;nbsp;&lt;span style=&quot;font-family: -webkit-standard; font-size: medium;&quot;&gt;&lt;/span&gt;" style="text;strokeColor=none;fillColor=none;align=left;verticalAlign=middle;spacingLeft=4;spacingRight=4;overflow=hidden;points=[[0,0.5],[1,0.5]];portConstraint=eastwest;rotatable=0;whiteSpace=wrap;html=1;" parent="PZtrhCCW3-IAaMeAY0HN-80" vertex="1">
          <mxGeometry y="110" width="310" height="30" as="geometry" />
        </mxCell>
        <mxCell id="PZtrhCCW3-IAaMeAY0HN-132" value="Поставки&lt;span style=&quot;font-family: -webkit-standard; font-size: medium; font-weight: 400; text-align: start;&quot;&gt;&lt;/span&gt;" style="swimlane;whiteSpace=wrap;html=1;" parent="1" vertex="1">
          <mxGeometry x="910" y="1300" width="310" height="210" as="geometry" />
        </mxCell>
        <mxCell id="PZtrhCCW3-IAaMeAY0HN-133" value="Номер поставки (PK, int, NOT NULL)" style="text;strokeColor=none;fillColor=none;align=left;verticalAlign=middle;spacingLeft=4;spacingRight=4;overflow=hidden;points=[[0,0.5],[1,0.5]];portConstraint=eastwest;rotatable=0;whiteSpace=wrap;html=1;" parent="PZtrhCCW3-IAaMeAY0HN-132" vertex="1">
          <mxGeometry y="30" width="310" height="30" as="geometry" />
        </mxCell>
        <mxCell id="PZtrhCCW3-IAaMeAY0HN-134" value="Номер поставщика&amp;nbsp;&lt;span style=&quot;font-family: -webkit-standard; font-size: medium;&quot;&gt;&lt;/span&gt;(FK, int, NOT NULL)" style="text;strokeColor=none;fillColor=none;align=left;verticalAlign=middle;spacingLeft=4;spacingRight=4;overflow=hidden;points=[[0,0.5],[1,0.5]];portConstraint=eastwest;rotatable=0;whiteSpace=wrap;html=1;" parent="PZtrhCCW3-IAaMeAY0HN-132" vertex="1">
          <mxGeometry y="60" width="310" height="30" as="geometry" />
        </mxCell>
        <mxCell id="PZtrhCCW3-IAaMeAY0HN-135" value="Номер сотрудника склада&amp;nbsp;(FK, int, NOT NULL)" style="text;strokeColor=none;fillColor=none;align=left;verticalAlign=middle;spacingLeft=4;spacingRight=4;overflow=hidden;points=[[0,0.5],[1,0.5]];portConstraint=eastwest;rotatable=0;whiteSpace=wrap;html=1;" parent="PZtrhCCW3-IAaMeAY0HN-132" vertex="1">
          <mxGeometry y="90" width="310" height="30" as="geometry" />
        </mxCell>
        <mxCell id="PZtrhCCW3-IAaMeAY0HN-136" value="Дата поступления (data, NOT NULL)&lt;span style=&quot;font-family: -webkit-standard; font-size: medium;&quot;&gt;&lt;/span&gt;" style="text;strokeColor=none;fillColor=none;align=left;verticalAlign=middle;spacingLeft=4;spacingRight=4;overflow=hidden;points=[[0,0.5],[1,0.5]];portConstraint=eastwest;rotatable=0;whiteSpace=wrap;html=1;" parent="PZtrhCCW3-IAaMeAY0HN-132" vertex="1">
          <mxGeometry y="120" width="310" height="30" as="geometry" />
        </mxCell>
        <mxCell id="PZtrhCCW3-IAaMeAY0HN-137" value="Номер счёт фактуры&amp;nbsp;(varcher(100), NOT NULL)" style="text;strokeColor=none;fillColor=none;align=left;verticalAlign=middle;spacingLeft=4;spacingRight=4;overflow=hidden;points=[[0,0.5],[1,0.5]];portConstraint=eastwest;rotatable=0;whiteSpace=wrap;html=1;" parent="PZtrhCCW3-IAaMeAY0HN-132" vertex="1">
          <mxGeometry y="150" width="310" height="30" as="geometry" />
        </mxCell>
        <mxCell id="xxaMytMatceJcMFOENrE-8" value="Сумма поставки (money, NOT NULL)" style="text;strokeColor=none;fillColor=none;align=left;verticalAlign=middle;spacingLeft=4;spacingRight=4;overflow=hidden;points=[[0,0.5],[1,0.5]];portConstraint=eastwest;rotatable=0;whiteSpace=wrap;html=1;" vertex="1" parent="PZtrhCCW3-IAaMeAY0HN-132">
          <mxGeometry y="180" width="310" height="30" as="geometry" />
        </mxCell>
        <mxCell id="PZtrhCCW3-IAaMeAY0HN-145" value="Сотрудники 2&lt;span style=&quot;font-family: -webkit-standard; font-size: medium; font-weight: 400; text-align: start;&quot;&gt;&lt;/span&gt;" style="swimlane;whiteSpace=wrap;html=1;startSize=23;" parent="1" vertex="1">
          <mxGeometry x="1050" y="1090" width="310" height="140" as="geometry" />
        </mxCell>
        <mxCell id="PZtrhCCW3-IAaMeAY0HN-146" value="Номер&amp;nbsp;&lt;span style=&quot;font-family: -webkit-standard; font-size: medium;&quot;&gt;&lt;/span&gt;сотрудника (PK, int, NOT NULL)" style="text;strokeColor=none;fillColor=none;align=left;verticalAlign=middle;spacingLeft=4;spacingRight=4;overflow=hidden;points=[[0,0.5],[1,0.5]];portConstraint=eastwest;rotatable=0;whiteSpace=wrap;html=1;" parent="PZtrhCCW3-IAaMeAY0HN-145" vertex="1">
          <mxGeometry y="20" width="310" height="30" as="geometry" />
        </mxCell>
        <mxCell id="PZtrhCCW3-IAaMeAY0HN-147" value="ФИО&amp;nbsp;(varcher(100), NOT NULL)" style="text;strokeColor=none;fillColor=none;align=left;verticalAlign=middle;spacingLeft=4;spacingRight=4;overflow=hidden;points=[[0,0.5],[1,0.5]];portConstraint=eastwest;rotatable=0;whiteSpace=wrap;html=1;" parent="PZtrhCCW3-IAaMeAY0HN-145" vertex="1">
          <mxGeometry y="50" width="310" height="30" as="geometry" />
        </mxCell>
        <mxCell id="PZtrhCCW3-IAaMeAY0HN-148" value="Контактная информация&amp;nbsp;(varcher(20), NOT NULL)" style="text;strokeColor=none;fillColor=none;align=left;verticalAlign=middle;spacingLeft=4;spacingRight=4;overflow=hidden;points=[[0,0.5],[1,0.5]];portConstraint=eastwest;rotatable=0;whiteSpace=wrap;html=1;" parent="PZtrhCCW3-IAaMeAY0HN-145" vertex="1">
          <mxGeometry y="80" width="310" height="30" as="geometry" />
        </mxCell>
        <mxCell id="PZtrhCCW3-IAaMeAY0HN-149" value="Должность&amp;nbsp;(varcher(50), NOT NULL)" style="text;strokeColor=none;fillColor=none;align=left;verticalAlign=middle;spacingLeft=4;spacingRight=4;overflow=hidden;points=[[0,0.5],[1,0.5]];portConstraint=eastwest;rotatable=0;whiteSpace=wrap;html=1;" parent="PZtrhCCW3-IAaMeAY0HN-145" vertex="1">
          <mxGeometry y="110" width="310" height="30" as="geometry" />
        </mxCell>
        <mxCell id="PZtrhCCW3-IAaMeAY0HN-150" value="Товары&lt;span style=&quot;font-family: -webkit-standard; font-size: medium; font-weight: 400; text-align: start;&quot;&gt;&lt;/span&gt;" style="swimlane;whiteSpace=wrap;html=1;startSize=23;" parent="1" vertex="1">
          <mxGeometry x="1930" y="770" width="310" height="150" as="geometry" />
        </mxCell>
        <mxCell id="PZtrhCCW3-IAaMeAY0HN-151" value="Номер товара (PK, int, NOT NULL)" style="text;strokeColor=none;fillColor=none;align=left;verticalAlign=middle;spacingLeft=4;spacingRight=4;overflow=hidden;points=[[0,0.5],[1,0.5]];portConstraint=eastwest;rotatable=0;whiteSpace=wrap;html=1;" parent="PZtrhCCW3-IAaMeAY0HN-150" vertex="1">
          <mxGeometry y="30" width="310" height="30" as="geometry" />
        </mxCell>
        <mxCell id="PZtrhCCW3-IAaMeAY0HN-152" value="Наименование&amp;nbsp;(varcher(200), NOT NULL)" style="text;strokeColor=none;fillColor=none;align=left;verticalAlign=middle;spacingLeft=4;spacingRight=4;overflow=hidden;points=[[0,0.5],[1,0.5]];portConstraint=eastwest;rotatable=0;whiteSpace=wrap;html=1;" parent="PZtrhCCW3-IAaMeAY0HN-150" vertex="1">
          <mxGeometry y="60" width="310" height="30" as="geometry" />
        </mxCell>
        <mxCell id="PZtrhCCW3-IAaMeAY0HN-153" value="Цена товара&amp;nbsp;(money, NOT NULL)&amp;nbsp;" style="text;strokeColor=none;fillColor=none;align=left;verticalAlign=middle;spacingLeft=4;spacingRight=4;overflow=hidden;points=[[0,0.5],[1,0.5]];portConstraint=eastwest;rotatable=0;whiteSpace=wrap;html=1;" parent="PZtrhCCW3-IAaMeAY0HN-150" vertex="1">
          <mxGeometry y="90" width="310" height="30" as="geometry" />
        </mxCell>
        <mxCell id="PZtrhCCW3-IAaMeAY0HN-154" value="Ед измерения&amp;nbsp;(varcher(50), NOT NULL)" style="text;strokeColor=none;fillColor=none;align=left;verticalAlign=middle;spacingLeft=4;spacingRight=4;overflow=hidden;points=[[0,0.5],[1,0.5]];portConstraint=eastwest;rotatable=0;whiteSpace=wrap;html=1;" parent="PZtrhCCW3-IAaMeAY0HN-150" vertex="1">
          <mxGeometry y="120" width="310" height="30" as="geometry" />
        </mxCell>
        <mxCell id="PZtrhCCW3-IAaMeAY0HN-155" value="Содержание поставки&lt;span style=&quot;font-family: -webkit-standard; font-size: medium; font-weight: 400; text-align: start;&quot;&gt;&lt;/span&gt;" style="swimlane;whiteSpace=wrap;html=1;" parent="1" vertex="1">
          <mxGeometry x="1550" y="1210" width="310" height="210" as="geometry" />
        </mxCell>
        <mxCell id="PZtrhCCW3-IAaMeAY0HN-156" value="Номер содержания поставки (PK, int, NOT NULL)" style="text;strokeColor=none;fillColor=none;align=left;verticalAlign=middle;spacingLeft=4;spacingRight=4;overflow=hidden;points=[[0,0.5],[1,0.5]];portConstraint=eastwest;rotatable=0;whiteSpace=wrap;html=1;" parent="PZtrhCCW3-IAaMeAY0HN-155" vertex="1">
          <mxGeometry y="30" width="310" height="30" as="geometry" />
        </mxCell>
        <mxCell id="PZtrhCCW3-IAaMeAY0HN-159" value="Кол-во (int, NOT NULL)&amp;nbsp;" style="text;strokeColor=none;fillColor=none;align=left;verticalAlign=middle;spacingLeft=4;spacingRight=4;overflow=hidden;points=[[0,0.5],[1,0.5]];portConstraint=eastwest;rotatable=0;whiteSpace=wrap;html=1;" parent="PZtrhCCW3-IAaMeAY0HN-155" vertex="1">
          <mxGeometry y="90" width="310" height="30" as="geometry" />
        </mxCell>
        <mxCell id="PZtrhCCW3-IAaMeAY0HN-160" value="Цена товара&amp;nbsp;(money, NOT NULL)&amp;nbsp;" style="text;strokeColor=none;fillColor=none;align=left;verticalAlign=middle;spacingLeft=4;spacingRight=4;overflow=hidden;points=[[0,0.5],[1,0.5]];portConstraint=eastwest;rotatable=0;whiteSpace=wrap;html=1;" parent="PZtrhCCW3-IAaMeAY0HN-155" vertex="1">
          <mxGeometry y="150" width="310" height="30" as="geometry" />
        </mxCell>
        <mxCell id="PZtrhCCW3-IAaMeAY0HN-161" value="Ед измерения&amp;nbsp;(varcher(50), NOT NULL)" style="text;strokeColor=none;fillColor=none;align=left;verticalAlign=middle;spacingLeft=4;spacingRight=4;overflow=hidden;points=[[0,0.5],[1,0.5]];portConstraint=eastwest;rotatable=0;whiteSpace=wrap;html=1;" parent="PZtrhCCW3-IAaMeAY0HN-155" vertex="1">
          <mxGeometry y="180" width="310" height="30" as="geometry" />
        </mxCell>
        <mxCell id="PZtrhCCW3-IAaMeAY0HN-158" value="Товар&amp;nbsp;&lt;span style=&quot;font-family: -webkit-standard; font-size: medium;&quot;&gt;&lt;/span&gt;(FK, int, NOT NULL)" style="text;strokeColor=none;fillColor=none;align=left;verticalAlign=middle;spacingLeft=4;spacingRight=4;overflow=hidden;points=[[0,0.5],[1,0.5]];portConstraint=eastwest;rotatable=0;whiteSpace=wrap;html=1;" parent="PZtrhCCW3-IAaMeAY0HN-155" vertex="1">
          <mxGeometry y="60" width="310" height="30" as="geometry" />
        </mxCell>
        <mxCell id="PZtrhCCW3-IAaMeAY0HN-157" value="Номер поставки&amp;nbsp;&lt;span style=&quot;font-family: -webkit-standard; font-size: medium;&quot;&gt;&lt;/span&gt;&amp;nbsp;(FK, int, NOT NULL)" style="text;strokeColor=none;fillColor=none;align=left;verticalAlign=middle;spacingLeft=4;spacingRight=4;overflow=hidden;points=[[0,0.5],[1,0.5]];portConstraint=eastwest;rotatable=0;whiteSpace=wrap;html=1;" parent="PZtrhCCW3-IAaMeAY0HN-155" vertex="1">
          <mxGeometry y="120" width="310" height="30" as="geometry" />
        </mxCell>
        <mxCell id="PZtrhCCW3-IAaMeAY0HN-162" value="Поставщики&lt;span style=&quot;font-family: -webkit-standard; font-size: medium; font-weight: 400; text-align: start;&quot;&gt;&lt;/span&gt;" style="swimlane;whiteSpace=wrap;html=1;" parent="1" vertex="1">
          <mxGeometry x="460" y="1340" width="310" height="270" as="geometry" />
        </mxCell>
        <mxCell id="PZtrhCCW3-IAaMeAY0HN-163" value="Номер поставщика (PK, int, NOT NULL)" style="text;strokeColor=none;fillColor=none;align=left;verticalAlign=middle;spacingLeft=4;spacingRight=4;overflow=hidden;points=[[0,0.5],[1,0.5]];portConstraint=eastwest;rotatable=0;whiteSpace=wrap;html=1;" parent="PZtrhCCW3-IAaMeAY0HN-162" vertex="1">
          <mxGeometry y="20" width="310" height="30" as="geometry" />
        </mxCell>
        <mxCell id="PZtrhCCW3-IAaMeAY0HN-164" value="Наименование&amp;nbsp;(varcher(200), NOT NULL)" style="text;strokeColor=none;fillColor=none;align=left;verticalAlign=middle;spacingLeft=4;spacingRight=4;overflow=hidden;points=[[0,0.5],[1,0.5]];portConstraint=eastwest;rotatable=0;whiteSpace=wrap;html=1;" parent="PZtrhCCW3-IAaMeAY0HN-162" vertex="1">
          <mxGeometry y="50" width="310" height="30" as="geometry" />
        </mxCell>
        <mxCell id="PZtrhCCW3-IAaMeAY0HN-165" value="Адрес&amp;nbsp;(varcher(200), NOT NULL)" style="text;strokeColor=none;fillColor=none;align=left;verticalAlign=middle;spacingLeft=4;spacingRight=4;overflow=hidden;points=[[0,0.5],[1,0.5]];portConstraint=eastwest;rotatable=0;whiteSpace=wrap;html=1;" parent="PZtrhCCW3-IAaMeAY0HN-162" vertex="1">
          <mxGeometry y="80" width="310" height="30" as="geometry" />
        </mxCell>
        <mxCell id="PZtrhCCW3-IAaMeAY0HN-166" value="Контактная информация&amp;nbsp;(varcher(20), NOT NULL)" style="text;strokeColor=none;fillColor=none;align=left;verticalAlign=middle;spacingLeft=4;spacingRight=4;overflow=hidden;points=[[0,0.5],[1,0.5]];portConstraint=eastwest;rotatable=0;whiteSpace=wrap;html=1;" parent="PZtrhCCW3-IAaMeAY0HN-162" vertex="1">
          <mxGeometry y="110" width="310" height="30" as="geometry" />
        </mxCell>
        <mxCell id="PZtrhCCW3-IAaMeAY0HN-167" value="Реквизиты ИНН&amp;nbsp;(varcher(12), NOT NULL)" style="text;strokeColor=none;fillColor=none;align=left;verticalAlign=middle;spacingLeft=4;spacingRight=4;overflow=hidden;points=[[0,0.5],[1,0.5]];portConstraint=eastwest;rotatable=0;whiteSpace=wrap;html=1;" parent="PZtrhCCW3-IAaMeAY0HN-162" vertex="1">
          <mxGeometry y="140" width="310" height="30" as="geometry" />
        </mxCell>
        <mxCell id="PZtrhCCW3-IAaMeAY0HN-168" value="Расчетный счет&amp;nbsp;(varcher(24), NOT NULL)" style="text;strokeColor=none;fillColor=none;align=left;verticalAlign=middle;spacingLeft=4;spacingRight=4;overflow=hidden;points=[[0,0.5],[1,0.5]];portConstraint=eastwest;rotatable=0;whiteSpace=wrap;html=1;" parent="PZtrhCCW3-IAaMeAY0HN-162" vertex="1">
          <mxGeometry y="170" width="310" height="30" as="geometry" />
        </mxCell>
        <mxCell id="PZtrhCCW3-IAaMeAY0HN-169" value="БИК (varcher(9), NOT NULL)" style="text;strokeColor=none;fillColor=none;align=left;verticalAlign=middle;spacingLeft=4;spacingRight=4;overflow=hidden;points=[[0,0.5],[1,0.5]];portConstraint=eastwest;rotatable=0;whiteSpace=wrap;html=1;" parent="PZtrhCCW3-IAaMeAY0HN-162" vertex="1">
          <mxGeometry y="200" width="310" height="30" as="geometry" />
        </mxCell>
        <mxCell id="PZtrhCCW3-IAaMeAY0HN-170" value="Наименование банка (varcher(100), NOT NULL)" style="text;strokeColor=none;fillColor=none;align=left;verticalAlign=middle;spacingLeft=4;spacingRight=4;overflow=hidden;points=[[0,0.5],[1,0.5]];portConstraint=eastwest;rotatable=0;whiteSpace=wrap;html=1;" parent="PZtrhCCW3-IAaMeAY0HN-162" vertex="1">
          <mxGeometry y="230" width="310" height="30" as="geometry" />
        </mxCell>
        <mxCell id="PZtrhCCW3-IAaMeAY0HN-171" style="edgeStyle=orthogonalEdgeStyle;rounded=0;orthogonalLoop=1;jettySize=auto;html=1;entryX=0;entryY=0.5;entryDx=0;entryDy=0;endArrow=none;endFill=0;" parent="1" source="PZtrhCCW3-IAaMeAY0HN-163" target="PZtrhCCW3-IAaMeAY0HN-134" edge="1">
          <mxGeometry relative="1" as="geometry" />
        </mxCell>
        <mxCell id="PZtrhCCW3-IAaMeAY0HN-172" style="edgeStyle=orthogonalEdgeStyle;rounded=0;orthogonalLoop=1;jettySize=auto;html=1;entryX=0;entryY=0.5;entryDx=0;entryDy=0;endArrow=none;endFill=0;" parent="1" source="PZtrhCCW3-IAaMeAY0HN-55" target="PZtrhCCW3-IAaMeAY0HN-135" edge="1">
          <mxGeometry relative="1" as="geometry" />
        </mxCell>
        <mxCell id="PZtrhCCW3-IAaMeAY0HN-173" style="edgeStyle=orthogonalEdgeStyle;rounded=0;orthogonalLoop=1;jettySize=auto;html=1;entryX=0;entryY=0.5;entryDx=0;entryDy=0;endArrow=none;endFill=0;" parent="1" source="PZtrhCCW3-IAaMeAY0HN-133" target="PZtrhCCW3-IAaMeAY0HN-157" edge="1">
          <mxGeometry relative="1" as="geometry" />
        </mxCell>
        <mxCell id="PZtrhCCW3-IAaMeAY0HN-175" style="edgeStyle=orthogonalEdgeStyle;rounded=0;orthogonalLoop=1;jettySize=auto;html=1;entryX=0;entryY=0.5;entryDx=0;entryDy=0;endArrow=none;endFill=0;" parent="1" source="PZtrhCCW3-IAaMeAY0HN-55" target="PZtrhCCW3-IAaMeAY0HN-71" edge="1">
          <mxGeometry relative="1" as="geometry" />
        </mxCell>
        <mxCell id="PZtrhCCW3-IAaMeAY0HN-176" style="edgeStyle=orthogonalEdgeStyle;rounded=0;orthogonalLoop=1;jettySize=auto;html=1;entryX=0;entryY=0.5;entryDx=0;entryDy=0;endArrow=none;endFill=0;" parent="1" target="PZtrhCCW3-IAaMeAY0HN-82" edge="1">
          <mxGeometry relative="1" as="geometry">
            <mxPoint x="1230" y="665" as="sourcePoint" />
            <Array as="points">
              <mxPoint x="1350" y="665" />
              <mxPoint x="1350" y="455" />
            </Array>
          </mxGeometry>
        </mxCell>
        <mxCell id="PZtrhCCW3-IAaMeAY0HN-179" style="edgeStyle=orthogonalEdgeStyle;rounded=0;orthogonalLoop=1;jettySize=auto;html=1;entryX=0;entryY=0.5;entryDx=0;entryDy=0;endArrow=none;endFill=0;" parent="1" source="PZtrhCCW3-IAaMeAY0HN-42" target="PZtrhCCW3-IAaMeAY0HN-72" edge="1">
          <mxGeometry relative="1" as="geometry" />
        </mxCell>
        <mxCell id="PZtrhCCW3-IAaMeAY0HN-180" style="edgeStyle=orthogonalEdgeStyle;rounded=0;orthogonalLoop=1;jettySize=auto;html=1;entryX=0;entryY=0.5;entryDx=0;entryDy=0;endArrow=none;endFill=0;" parent="1" source="PZtrhCCW3-IAaMeAY0HN-16" target="PZtrhCCW3-IAaMeAY0HN-69" edge="1">
          <mxGeometry relative="1" as="geometry" />
        </mxCell>
        <mxCell id="PZtrhCCW3-IAaMeAY0HN-182" style="edgeStyle=orthogonalEdgeStyle;rounded=0;orthogonalLoop=1;jettySize=auto;html=1;entryX=1;entryY=0.5;entryDx=0;entryDy=0;endArrow=none;endFill=0;" parent="1" source="PZtrhCCW3-IAaMeAY0HN-151" target="PZtrhCCW3-IAaMeAY0HN-83" edge="1">
          <mxGeometry relative="1" as="geometry">
            <Array as="points">
              <mxPoint x="1895" y="815" />
              <mxPoint x="1895" y="485" />
            </Array>
          </mxGeometry>
        </mxCell>
        <mxCell id="ee1d04C1HXF14xPtLKcf-3" style="edgeStyle=orthogonalEdgeStyle;rounded=0;orthogonalLoop=1;jettySize=auto;html=1;entryX=1;entryY=0.5;entryDx=0;entryDy=0;endArrow=none;endFill=0;" parent="1" source="PZtrhCCW3-IAaMeAY0HN-151" target="PZtrhCCW3-IAaMeAY0HN-158" edge="1">
          <mxGeometry relative="1" as="geometry" />
        </mxCell>
        <mxCell id="ee1d04C1HXF14xPtLKcf-4" style="edgeStyle=orthogonalEdgeStyle;rounded=0;orthogonalLoop=1;jettySize=auto;html=1;entryX=1;entryY=0.5;entryDx=0;entryDy=0;endArrow=none;endFill=0;" parent="1" source="PZtrhCCW3-IAaMeAY0HN-146" target="PZtrhCCW3-IAaMeAY0HN-70" edge="1">
          <mxGeometry relative="1" as="geometry">
            <Array as="points">
              <mxPoint x="1390" y="1125" />
              <mxPoint x="1390" y="725" />
            </Array>
          </mxGeometry>
        </mxCell>
        <mxCell id="RirqrSQaRxkpdVnNxMa1-1" value="&lt;font style=&quot;font-size: 16px;&quot;&gt;М&lt;/font&gt;" style="text;html=1;align=center;verticalAlign=middle;resizable=0;points=[];autosize=1;strokeColor=none;fillColor=none;" parent="1" vertex="1">
          <mxGeometry x="870" y="720" width="40" height="30" as="geometry" />
        </mxCell>
        <mxCell id="RirqrSQaRxkpdVnNxMa1-2" value="&lt;font style=&quot;font-size: 16px;&quot;&gt;М&lt;/font&gt;" style="text;html=1;align=center;verticalAlign=middle;resizable=0;points=[];autosize=1;strokeColor=none;fillColor=none;" parent="1" vertex="1">
          <mxGeometry x="870" y="790" width="40" height="30" as="geometry" />
        </mxCell>
        <mxCell id="RirqrSQaRxkpdVnNxMa1-3" value="&lt;font style=&quot;font-size: 16px;&quot;&gt;М&lt;/font&gt;" style="text;html=1;align=center;verticalAlign=middle;resizable=0;points=[];autosize=1;strokeColor=none;fillColor=none;" parent="1" vertex="1">
          <mxGeometry x="870" y="660" width="40" height="30" as="geometry" />
        </mxCell>
        <mxCell id="RirqrSQaRxkpdVnNxMa1-4" value="&lt;font style=&quot;font-size: 16px;&quot;&gt;М&lt;/font&gt;" style="text;html=1;align=center;verticalAlign=middle;resizable=0;points=[];autosize=1;strokeColor=none;fillColor=none;" parent="1" vertex="1">
          <mxGeometry x="1890" y="780" width="40" height="30" as="geometry" />
        </mxCell>
        <mxCell id="RirqrSQaRxkpdVnNxMa1-5" value="&lt;font style=&quot;font-size: 16px;&quot;&gt;1&lt;/font&gt;" style="text;html=1;align=center;verticalAlign=middle;resizable=0;points=[];autosize=1;strokeColor=none;fillColor=none;" parent="1" vertex="1">
          <mxGeometry x="1865" y="1290" width="30" height="30" as="geometry" />
        </mxCell>
        <mxCell id="RirqrSQaRxkpdVnNxMa1-6" value="&lt;font style=&quot;font-size: 16px;&quot;&gt;1&lt;/font&gt;" style="text;html=1;align=center;verticalAlign=middle;resizable=0;points=[];autosize=1;strokeColor=none;fillColor=none;" parent="1" vertex="1">
          <mxGeometry x="1770" y="450" width="30" height="30" as="geometry" />
        </mxCell>
        <mxCell id="RirqrSQaRxkpdVnNxMa1-7" value="&lt;font style=&quot;font-size: 16px;&quot;&gt;1&lt;/font&gt;" style="text;html=1;align=center;verticalAlign=middle;resizable=0;points=[];autosize=1;strokeColor=none;fillColor=none;" parent="1" vertex="1">
          <mxGeometry x="1430" y="420" width="30" height="30" as="geometry" />
        </mxCell>
        <mxCell id="RirqrSQaRxkpdVnNxMa1-8" value="&lt;font style=&quot;font-size: 16px;&quot;&gt;1&lt;/font&gt;" style="text;html=1;align=center;verticalAlign=middle;resizable=0;points=[];autosize=1;strokeColor=none;fillColor=none;" parent="1" vertex="1">
          <mxGeometry x="1230" y="640" width="30" height="30" as="geometry" />
        </mxCell>
        <mxCell id="RirqrSQaRxkpdVnNxMa1-9" value="&lt;font style=&quot;font-size: 16px;&quot;&gt;1&lt;/font&gt;" style="text;html=1;align=center;verticalAlign=middle;resizable=0;points=[];autosize=1;strokeColor=none;fillColor=none;" parent="1" vertex="1">
          <mxGeometry x="1360" y="1130" width="30" height="30" as="geometry" />
        </mxCell>
        <mxCell id="RirqrSQaRxkpdVnNxMa1-10" value="&lt;font style=&quot;font-size: 16px;&quot;&gt;1&lt;/font&gt;" style="text;html=1;align=center;verticalAlign=middle;resizable=0;points=[];autosize=1;strokeColor=none;fillColor=none;" parent="1" vertex="1">
          <mxGeometry x="739" y="756" width="30" height="30" as="geometry" />
        </mxCell>
        <mxCell id="RirqrSQaRxkpdVnNxMa1-11" value="&lt;font style=&quot;font-size: 16px;&quot;&gt;1&lt;/font&gt;" style="text;html=1;align=center;verticalAlign=middle;resizable=0;points=[];autosize=1;strokeColor=none;fillColor=none;" parent="1" vertex="1">
          <mxGeometry x="745" y="334" width="30" height="30" as="geometry" />
        </mxCell>
        <mxCell id="RirqrSQaRxkpdVnNxMa1-12" value="&lt;font style=&quot;font-size: 16px;&quot;&gt;1&lt;/font&gt;" style="text;html=1;align=center;verticalAlign=middle;resizable=0;points=[];autosize=1;strokeColor=none;fillColor=none;" parent="1" vertex="1">
          <mxGeometry x="835" y="1094" width="30" height="30" as="geometry" />
        </mxCell>
        <mxCell id="RirqrSQaRxkpdVnNxMa1-13" value="&lt;font style=&quot;font-size: 16px;&quot;&gt;1&lt;/font&gt;" style="text;html=1;align=center;verticalAlign=middle;resizable=0;points=[];autosize=1;strokeColor=none;fillColor=none;" parent="1" vertex="1">
          <mxGeometry x="771" y="1346" width="30" height="30" as="geometry" />
        </mxCell>
        <mxCell id="RirqrSQaRxkpdVnNxMa1-14" value="&lt;font style=&quot;font-size: 16px;&quot;&gt;М&lt;/font&gt;" style="text;html=1;align=center;verticalAlign=middle;resizable=0;points=[];autosize=1;strokeColor=none;fillColor=none;" parent="1" vertex="1">
          <mxGeometry x="870" y="1346" width="40" height="30" as="geometry" />
        </mxCell>
        <mxCell id="RirqrSQaRxkpdVnNxMa1-15" value="&lt;font style=&quot;font-size: 16px;&quot;&gt;М&lt;/font&gt;" style="text;html=1;align=center;verticalAlign=middle;resizable=0;points=[];autosize=1;strokeColor=none;fillColor=none;" parent="1" vertex="1">
          <mxGeometry x="869" y="1405" width="40" height="30" as="geometry" />
        </mxCell>
        <mxCell id="RirqrSQaRxkpdVnNxMa1-17" value="&lt;font style=&quot;font-size: 16px;&quot;&gt;1&lt;/font&gt;" style="text;html=1;align=center;verticalAlign=middle;resizable=0;points=[];autosize=1;strokeColor=none;fillColor=none;" parent="1" vertex="1">
          <mxGeometry x="1220" y="1346" width="30" height="30" as="geometry" />
        </mxCell>
        <mxCell id="RirqrSQaRxkpdVnNxMa1-18" value="&lt;font style=&quot;font-size: 16px;&quot;&gt;1&lt;/font&gt;" style="text;html=1;align=center;verticalAlign=middle;resizable=0;points=[];autosize=1;strokeColor=none;fillColor=none;" parent="1" vertex="1">
          <mxGeometry x="1520" y="1346" width="30" height="30" as="geometry" />
        </mxCell>
        <mxCell id="RirqrSQaRxkpdVnNxMa1-19" value="&lt;font style=&quot;font-size: 16px;&quot;&gt;М&lt;/font&gt;" style="text;html=1;align=center;verticalAlign=middle;resizable=0;points=[];autosize=1;strokeColor=none;fillColor=none;" parent="1" vertex="1">
          <mxGeometry x="1230" y="726" width="40" height="30" as="geometry" />
        </mxCell>
      </root>
    </mxGraphModel>
  </diagram>
</mxfile>
